<mxfile host="www.draw.io" modified="2019-12-02T14:17:14.836Z" agent="Mozilla/5.0 (Windows NT 10.0; Win64; x64; rv:70.0) Gecko/20100101 Firefox/70.0" etag="AjREUF3ecP_n0lSXIX32" version="12.3.3" type="github" pages="1">
  <diagram id="KN2XUhoYWy7jpF0GCZ8w" name="Page-1">
    <mxGraphModel dx="1182" dy="761" grid="1" gridSize="10" guides="1" tooltips="1" connect="1" arrows="1" fold="1" page="1" pageScale="1" pageWidth="850" pageHeight="1100" math="0" shadow="0">
      <root>
        <mxCell id="0"/>
        <mxCell id="1" parent="0"/>
        <mxCell id="bQyamxY2uDURpc13enPq-4" value="Jenkins" style="image;html=1;labelBackgroundColor=#ffffff;image=img/lib/clip_art/computers/Server_128x128.png" parent="1" vertex="1">
          <mxGeometry x="240" y="400" width="80" height="80" as="geometry"/>
        </mxCell>
        <mxCell id="bQyamxY2uDURpc13enPq-5" value="&lt;div&gt;PHP&lt;br&gt;&lt;/div&gt;" style="image;html=1;labelBackgroundColor=#ffffff;image=img/lib/clip_art/computers/Server_128x128.png" parent="1" vertex="1">
          <mxGeometry x="530" y="400" width="80" height="80" as="geometry"/>
        </mxCell>
        <mxCell id="bQyamxY2uDURpc13enPq-7" value="GitHub" style="image;html=1;labelBackgroundColor=#ffffff;image=img/lib/clip_art/computers/Server_Tower_128x128.png" parent="1" vertex="1">
          <mxGeometry x="640" y="200" width="80" height="80" as="geometry"/>
        </mxCell>
        <mxCell id="U8NSz-zDmw5IFP10hMDk-1" value="Ansible" style="image;html=1;labelBackgroundColor=#ffffff;image=img/lib/clip_art/computers/Server_128x128.png" vertex="1" parent="1">
          <mxGeometry x="385" y="490" width="80" height="80" as="geometry"/>
        </mxCell>
      </root>
    </mxGraphModel>
  </diagram>
</mxfile>
